<?xml version="1.0" standalone="no"?>
<!DOCTYPE svg PUBLIC "-//W3C//DTD SVG 20010904//EN"
 "http://www.w3.org/TR/2001/REC-SVG-20010904/DTD/svg10.dtd">
<svg version="1.0" xmlns="http://www.w3.org/2000/svg"
 width="500.000000pt" height="500.000000pt" viewBox="0 0 500.000000 500.000000"
 preserveAspectRatio="xMidYMid meet">

<g transform="translate(0.000000,500.000000) scale(0.100000,-0.100000)"
fill="#000000" stroke="none">
<path d="M2057 3937 c-3 -8 -258 -391 -566 -852 l-561 -836 0 -110 0 -109 565
0 565 0 0 -365 0 -365 185 0 185 0 0 540 0 540 233 0 233 0 307 -540 308 -540
195 0 c107 0 193 3 191 8 -3 4 -147 251 -321 549 -174 298 -317 547 -318 553
-2 6 33 24 77 39 273 93 444 278 501 542 21 99 21 291 -1 394 -9 44 -34 118
-56 164 -72 155 -229 281 -423 340 -161 50 -219 54 -772 58 -454 4 -522 3
-527 -10z m1072 -292 c275 -62 393 -218 378 -499 -13 -258 -149 -404 -428
-462 -68 -15 -137 -18 -364 -19 l-280 0 -3 504 -2 503 312 -5 c240 -4 330 -9
387 -22z m-1072 -1342 c-2 -2 -175 -2 -384 -1 l-379 3 297 435 c164 239 335
498 381 575 l83 140 3 -574 c1 -316 1 -576 -1 -578z"/>
</g>
</svg>
